<svg preserveAspectRatio="none" overflow="visible" style="display: block;" width="12" height="12" viewBox="0 0 12 12" fill="none" xmlns="http://www.w3.org/2000/svg">
<g id="stars-02" clip-path="url(#clip0_0_2498)">
<path id="Icon (Stroke)" fill-rule="evenodd" clip-rule="evenodd" d="M2.25 0.5C2.52614 0.5 2.75 0.723858 2.75 1V1.75H3.5C3.77614 1.75 4 1.97386 4 2.25C4 2.52614 3.77614 2.75 3.5 2.75H2.75V3.5C2.75 3.77614 2.52614 4 2.25 4C1.97386 4 1.75 3.77614 1.75 3.5V2.75H1C0.723858 2.75 0.5 2.52614 0.5 2.25C0.5 1.97386 0.723858 1.75 1 1.75H1.75V1C1.75 0.723858 1.97386 0.5 2.25 0.5ZM6.5 1C6.70689 1 6.89241 1.12741 6.96667 1.32051L7.83376 3.57494C7.98396 3.96546 8.03116 4.078 8.09572 4.1688C8.1605 4.2599 8.2401 4.3395 8.3312 4.40428C8.422 4.46884 8.53454 4.51604 8.92506 4.66624L11.1795 5.53333C11.3726 5.60759 11.5 5.79311 11.5 6C11.5 6.20689 11.3726 6.39241 11.1795 6.46667L8.92506 7.33376C8.53454 7.48396 8.422 7.53116 8.3312 7.59572C8.2401 7.6605 8.1605 7.7401 8.09572 7.8312C8.03116 7.922 7.98396 8.03454 7.83376 8.42506L6.96667 10.6795C6.89241 10.8726 6.70689 11 6.5 11C6.29312 11 6.1076 10.8726 6.03333 10.6795L5.16624 8.42506C5.01604 8.03454 4.96884 7.922 4.90428 7.8312C4.8395 7.7401 4.7599 7.6605 4.6688 7.59572C4.578 7.53116 4.46546 7.48396 4.07494 7.33376L1.82051 6.46667C1.62741 6.39241 1.5 6.20689 1.5 6C1.5 5.79311 1.62741 5.60759 1.82051 5.53333L4.07494 4.66624C4.46546 4.51604 4.578 4.46884 4.6688 4.40428C4.7599 4.3395 4.8395 4.2599 4.90428 4.1688C4.96884 4.078 5.01604 3.96546 5.16624 3.57494L6.03333 1.32051C6.10759 1.12741 6.29311 1 6.5 1ZM6.5 2.89284L6.09958 3.93392C6.09295 3.95116 6.08642 3.96817 6.07997 3.98497C5.95818 4.30209 5.86619 4.54165 5.71925 4.74829C5.58969 4.9305 5.4305 5.08969 5.24829 5.21925C5.04165 5.36618 4.80209 5.45818 4.48497 5.57997C4.46817 5.58642 4.45116 5.59295 4.43392 5.59958L3.39284 6L4.43392 6.40042C4.45116 6.40705 4.46817 6.41358 4.48497 6.42003C4.80209 6.54182 5.04165 6.63381 5.24829 6.78075C5.4305 6.91031 5.58969 7.0695 5.71925 7.25171C5.86618 7.45835 5.95818 7.6979 6.07997 8.01503C6.08642 8.03183 6.09295 8.04884 6.09958 8.06608L6.5 9.10716L6.90042 8.06608C6.90705 8.04884 6.91358 8.03183 6.92003 8.01504C7.04182 7.69791 7.13382 7.45835 7.28075 7.25171C7.41031 7.0695 7.5695 6.91031 7.75171 6.78075C7.95835 6.63382 8.19791 6.54182 8.51503 6.42003C8.53183 6.41358 8.54884 6.40705 8.56608 6.40042L9.60716 6L8.56608 5.59958C8.54884 5.59295 8.53182 5.58642 8.51502 5.57997C8.1979 5.45818 7.95835 5.36618 7.75171 5.21925C7.5695 5.08969 7.41031 4.9305 7.28075 4.74829C7.13382 4.54165 7.04182 4.30209 6.92003 3.98497C6.91358 3.96817 6.90705 3.95116 6.90042 3.93392L6.5 2.89284ZM2.25 8C2.52614 8 2.75 8.22386 2.75 8.5V9.25H3.5C3.77614 9.25 4 9.47386 4 9.75C4 10.0261 3.77614 10.25 3.5 10.25H2.75V11C2.75 11.2761 2.52614 11.5 2.25 11.5C1.97386 11.5 1.75 11.2761 1.75 11V10.25H1C0.723858 10.25 0.5 10.0261 0.5 9.75C0.5 9.47386 0.723858 9.25 1 9.25H1.75V8.5C1.75 8.22386 1.97386 8 2.25 8Z" fill="url(#paint0_linear_0_2498)"/>
</g>
<defs>
<linearGradient id="paint0_linear_0_2498" x1="6" y1="0.5" x2="6" y2="11.5" gradientUnits="userSpaceOnUse">
<stop stop-color="#1B85FF"/>
<stop offset="1" stop-color="#BD87F7"/>
</linearGradient>
<clipPath id="clip0_0_2498">
<rect width="12" height="12" fill="white"/>
</clipPath>
</defs>
</svg>
