<svg xmlns="http://www.w3.org/2000/svg" width="392" height="168" viewBox="0 0 784 336" fill="none" font-family="InterDisplay, Inter, system-ui, -apple-system, sans-serif"><style>@media (prefers-reduced-motion:reduce){animate,animateTransform{display:none}}</style><defs><clipPath id="rA"><rect x="24" y="34" width="288" height="276" rx="14"/></clipPath><clipPath id="rB"><rect x="472" y="34" width="288" height="276" rx="14"/></clipPath><clipPath id="w1"><rect x="316" y="112" width="152" height="32"><animate attributeName="width" dur="6s" repeatCount="indefinite" calcMode="spline" values="152;152;0;0;152;152" keyTimes="0;0.05;0.0701;0.10;0.20;1" keySplines="0 0 1 1;0 0 1 1;0 0 1 1;0.4 0 0.2 1;0 0 1 1"/></rect></clipPath><clipPath id="w2"><rect x="316" y="164" width="152" height="32"><animate attributeName="width" dur="6s" repeatCount="indefinite" calcMode="spline" values="152;152;0;0;152;152" keyTimes="0;0.05;0.0701;0.2333;0.3333;1" keySplines="0 0 1 1;0 0 1 1;0 0 1 1;0.4 0 0.2 1;0 0 1 1"/></rect></clipPath><clipPath id="w3"><rect x="316" y="216" width="152" height="32"><animate attributeName="width" dur="6s" repeatCount="indefinite" calcMode="spline" values="152;152;0;0;152;152" keyTimes="0;0.05;0.0701;0.3667;0.4667;1" keySplines="0 0 1 1;0 0 1 1;0 0 1 1;0.4 0 0.2 1;0 0 1 1"/></rect></clipPath><clipPath id="w4"><rect x="316" y="268" width="152" height="32"><animate attributeName="width" dur="6s" repeatCount="indefinite" calcMode="spline" values="152;152;0;0;152;152" keyTimes="0;0.05;0.0701;0.50;0.60;1" keySplines="0 0 1 1;0 0 1 1;0 0 1 1;0.4 0 0.2 1;0 0 1 1"/></rect></clipPath></defs><rect x="0" y="0" width="784" height="336" fill="#eff6ff"/><text x="24" y="20" font-size="13" font-weight="700" letter-spacing="0.8" fill="#9aa1ad">SYSTEM A</text><text x="760" y="20" font-size="13" font-weight="700" letter-spacing="0.8" fill="#9aa1ad" text-anchor="end">SYSTEM B</text><g clip-path="url(#rA)"><rect x="24" y="34" width="288" height="276" fill="#ffffff"/><rect x="24" y="34" width="288" height="30" fill="#f2f4f8"/><rect x="24" y="64" width="288" height="38" fill="#fcfcfd"/><rect x="48" y="102" width="264" height="52" fill="#f0fdf4" opacity="1"><animate attributeName="opacity" dur="6s" repeatCount="indefinite" values="1;0;0;1;1" keyTimes="0;0.05;0.1833;0.2333;1"/></rect><rect x="48" y="154" width="264" height="52" fill="#f0fdf4" opacity="1"><animate attributeName="opacity" dur="6s" repeatCount="indefinite" values="1;0;0;1;1" keyTimes="0;0.05;0.3167;0.3667;1"/></rect><rect x="48" y="206" width="264" height="52" fill="#fef2f2" opacity="1"><animate attributeName="opacity" dur="6s" repeatCount="indefinite" values="1;0;0;1;1" keyTimes="0;0.05;0.45;0.50;1"/></rect><rect x="48" y="258" width="264" height="52" fill="#fff7ed" opacity="1"><animate attributeName="opacity" dur="6s" repeatCount="indefinite" values="1;0;0;1;1" keyTimes="0;0.05;0.5833;0.6333;1"/></rect><rect x="24" y="64" width="24" height="246" fill="#f2f4f8"/><g stroke="#e1e4ea" stroke-width="2"><path d="M24 65 H312"/><path d="M24 103 H312"/><path d="M48 34 V310"/></g><g stroke="#ebeef3" stroke-width="2"><path d="M24 155 H312"/><path d="M24 207 H312"/><path d="M24 259 H312"/><path d="M180 64 V310"/></g><path d="M180 34 V64" stroke="#e1e4ea" stroke-width="2"/><g font-size="11" font-weight="500" fill="#9aa1ad" text-anchor="middle"><text x="114" y="53">A</text><text x="246" y="53">B</text></g><g font-size="13" fill="#4e5563"><text x="60" y="87.5">order_id</text><text x="300" y="87.5" text-anchor="end">amount</text></g><g font-size="12" fill="#9aa1ad" text-anchor="middle"><text x="36" y="132.2">1</text><text x="36" y="184.2">2</text><text x="36" y="236.2">3</text><text x="36" y="288.2">4</text></g><g font-size="13" fill="#2f3542"><text x="60" y="132.5">ORD-8841</text><text x="60" y="184.5">ORD-8842</text><text x="60" y="236.5">ORD-8843</text><text x="60" y="288.5">ORD-8844</text></g><g font-size="13" fill="#2f3542" text-anchor="end"><text x="300" y="132.5">10</text><text x="300" y="184.5">20</text><text x="300" y="236.5">100</text><text x="300" y="288.5">450</text></g></g><rect x="25" y="35" width="286" height="274" rx="13" stroke="#e1e4ea" stroke-width="2"/><g clip-path="url(#rB)"><rect x="472" y="34" width="288" height="276" fill="#ffffff"/><rect x="472" y="34" width="288" height="30" fill="#f2f4f8"/><rect x="472" y="64" width="288" height="38" fill="#fcfcfd"/><rect x="496" y="102" width="264" height="52" fill="#f0fdf4" opacity="1"><animate attributeName="opacity" dur="6s" repeatCount="indefinite" values="1;0;0;1;1" keyTimes="0;0.05;0.1833;0.2333;1"/></rect><rect x="496" y="154" width="264" height="52" fill="#f0fdf4" opacity="1"><animate attributeName="opacity" dur="6s" repeatCount="indefinite" values="1;0;0;1;1" keyTimes="0;0.05;0.3167;0.3667;1"/></rect><rect x="496" y="206" width="264" height="52" fill="#fef2f2" opacity="1"><animate attributeName="opacity" dur="6s" repeatCount="indefinite" values="1;0;0;1;1" keyTimes="0;0.05;0.45;0.50;1"/></rect><rect x="496" y="258" width="264" height="52" fill="#fff7ed" opacity="1"><animate attributeName="opacity" dur="6s" repeatCount="indefinite" values="1;0;0;1;1" keyTimes="0;0.05;0.5833;0.6333;1"/></rect><rect x="472" y="64" width="24" height="246" fill="#f2f4f8"/><g stroke="#e1e4ea" stroke-width="2"><path d="M472 65 H760"/><path d="M472 103 H760"/><path d="M496 34 V310"/></g><g stroke="#ebeef3" stroke-width="2"><path d="M472 155 H760"/><path d="M472 207 H760"/><path d="M472 259 H760"/><path d="M628 64 V310"/></g><path d="M628 34 V64" stroke="#e1e4ea" stroke-width="2"/><g font-size="11" font-weight="500" fill="#9aa1ad" text-anchor="middle"><text x="562" y="53">A</text><text x="694" y="53">B</text></g><g font-size="13" fill="#4e5563"><text x="508" y="87.5">order_id</text><text x="748" y="87.5" text-anchor="end">settled</text></g><g font-size="12" fill="#9aa1ad" text-anchor="middle"><text x="484" y="132.2">1</text><text x="484" y="184.2">2</text><text x="484" y="236.2">3</text><text x="484" y="288.2">4</text></g><g font-size="13" fill="#2f3542"><text x="508" y="132.5">ORD-8841</text><text x="508" y="184.5">ORD-8842</text><text x="508" y="236.5">ORD-8843</text><text x="508" y="288.5" fill="#9aa1ad">no record</text></g><g font-size="13" fill="#2f3542" text-anchor="end"><text x="748" y="132.5">10</text><text x="748" y="184.5">20</text><text x="748" y="236.5">99</text><text x="748" y="288.5" fill="#9aa1ad">&#8212;</text></g></g><rect x="473" y="35" width="286" height="274" rx="13" stroke="#e1e4ea" stroke-width="2"/><g opacity="1"><animate attributeName="opacity" dur="6s" repeatCount="indefinite" values="1;0;0;1;1" keyTimes="0;0.05;0.07;0.071;1"/><g stroke-width="4" stroke-linecap="round"><g clip-path="url(#w1)"><path d="M318 128 H466" stroke="#16a34a"/></g><g clip-path="url(#w2)"><path d="M318 180 H466" stroke="#16a34a"/></g><g clip-path="url(#w3)"><path d="M318 232 H466" stroke="#dc2626"/></g><g clip-path="url(#w4)"><path d="M318 284 H466" stroke="#ea580c" stroke-dasharray="8 7"/></g></g><g transform="translate(392,128)" opacity="1"><animate attributeName="opacity" dur="6s" repeatCount="indefinite" values="1;1;0;0;1;1" keyTimes="0;0.05;0.0701;0.1833;0.2333;1"/><animateTransform attributeName="transform" type="scale" additive="sum" dur="6s" repeatCount="indefinite" calcMode="spline" values="1;1;0.45;0.45;1;1" keyTimes="0;0.05;0.0701;0.1833;0.2333;1" keySplines="0 0 1 1;0 0 1 1;0 0 1 1;0.2 0.9 0.3 1;0 0 1 1"/><circle cx="0" cy="0" r="21" fill="#16a34a" stroke="#eff6ff" stroke-width="7"/><path d="M-8 0.5 l5 5.5 l10.5 -11.5" stroke="#ffffff" stroke-width="3.4" stroke-linecap="round" stroke-linejoin="round"/></g><g transform="translate(392,180)" opacity="1"><animate attributeName="opacity" dur="6s" repeatCount="indefinite" values="1;1;0;0;1;1" keyTimes="0;0.05;0.0701;0.3167;0.3667;1"/><animateTransform attributeName="transform" type="scale" additive="sum" dur="6s" repeatCount="indefinite" calcMode="spline" values="1;1;0.45;0.45;1;1" keyTimes="0;0.05;0.0701;0.3167;0.3667;1" keySplines="0 0 1 1;0 0 1 1;0 0 1 1;0.2 0.9 0.3 1;0 0 1 1"/><circle cx="0" cy="0" r="21" fill="#16a34a" stroke="#eff6ff" stroke-width="7"/><path d="M-8 0.5 l5 5.5 l10.5 -11.5" stroke="#ffffff" stroke-width="3.4" stroke-linecap="round" stroke-linejoin="round"/></g><g transform="translate(392,232)" opacity="1"><animate attributeName="opacity" dur="6s" repeatCount="indefinite" values="1;1;0;0;1;1" keyTimes="0;0.05;0.0701;0.45;0.50;1"/><animateTransform attributeName="transform" type="scale" additive="sum" dur="6s" repeatCount="indefinite" calcMode="spline" values="1;1;0.45;0.45;1;1" keyTimes="0;0.05;0.0701;0.45;0.50;1" keySplines="0 0 1 1;0 0 1 1;0 0 1 1;0.2 0.9 0.3 1;0 0 1 1"/><circle cx="0" cy="0" r="21" fill="#dc2626" stroke="#eff6ff" stroke-width="7"/><path d="M-6 -6 L6 6 M6 -6 L-6 6" stroke="#ffffff" stroke-width="3.4" stroke-linecap="round"/></g><g transform="translate(392,284)" opacity="1"><animate attributeName="opacity" dur="6s" repeatCount="indefinite" values="1;1;0;0;1;1" keyTimes="0;0.05;0.0701;0.5833;0.6333;1"/><animateTransform attributeName="transform" type="scale" additive="sum" dur="6s" repeatCount="indefinite" calcMode="spline" values="1;1;0.45;0.45;1;1" keyTimes="0;0.05;0.0701;0.5833;0.6333;1" keySplines="0 0 1 1;0 0 1 1;0 0 1 1;0.2 0.9 0.3 1;0 0 1 1"/><circle cx="0" cy="0" r="21" fill="#ea580c" stroke="#eff6ff" stroke-width="7"/><text x="0" y="7.5" font-size="20" font-weight="700" fill="#ffffff" text-anchor="middle">?</text></g></g></svg>