<svg width="264" height="140" viewBox="0 0 264 140" fill="none" xmlns="http://www.w3.org/2000/svg">
<path d="M209 8H55C50.0294 8 46 12.0294 46 17V123C46 127.971 50.0294 132 55 132H209C213.971 132 218 127.971 218 123V17C218 12.0294 213.971 8 209 8Z" fill="white" stroke="#E7EAEF" stroke-width="0.5"/>
<mask id="mask0_4518_10125" style="mask-type:luminance" maskUnits="userSpaceOnUse" x="46" y="8" width="172" height="124">
<path d="M209 8H55C50.0294 8 46 12.0294 46 17V123C46 127.971 50.0294 132 55 132H209C213.971 132 218 127.971 218 123V17C218 12.0294 213.971 8 209 8Z" fill="white"/>
</mask>
<g mask="url(#mask0_4518_10125)">
<path d="M218 8H46V32H218V8Z" fill="#EFF2F5"/>
<path d="M46 32H218" stroke="#E4E8ED" stroke-width="0.5"/>
</g>
<path d="M91.5 17.5H69.5C68.1193 17.5 67 18.6193 67 20C67 21.3807 68.1193 22.5 69.5 22.5H91.5C92.8807 22.5 94 21.3807 94 20C94 18.6193 92.8807 17.5 91.5 17.5Z" fill="#DFE3E9"/>
<path d="M144.5 17.5H112.5C111.119 17.5 110 18.6193 110 20C110 21.3807 111.119 22.5 112.5 22.5H144.5C145.881 22.5 147 21.3807 147 20C147 18.6193 145.881 17.5 144.5 17.5Z" fill="#DFE3E9"/>
<path d="M194.5 17.5H179.5C178.119 17.5 177 18.6193 177 20C177 21.3807 178.119 22.5 179.5 22.5H194.5C195.881 22.5 197 21.3807 197 20C197 18.6193 195.881 17.5 194.5 17.5Z" fill="#DFE3E9"/>
<path d="M56.5913 41.6364V46H56.0629V42.1903H56.0373L54.9719 42.8977V42.3608L56.0629 41.6364H56.5913Z" fill="#A9B1BB"/>
<path d="M54.6353 65V64.6165L56.0756 63.0398C56.2447 62.8551 56.3839 62.6946 56.4933 62.5582C56.6026 62.4205 56.6836 62.2912 56.7362 62.1705C56.7901 62.0483 56.8171 61.9205 56.8171 61.7869C56.8171 61.6335 56.7802 61.5007 56.7063 61.3885C56.6339 61.2763 56.5344 61.1896 56.408 61.1286C56.2816 61.0675 56.1396 61.0369 55.9819 61.0369C55.8143 61.0369 55.668 61.0717 55.543 61.1413C55.4194 61.2095 55.3235 61.3054 55.2553 61.429C55.1886 61.5526 55.1552 61.6974 55.1552 61.8636H54.6523C54.6523 61.608 54.7113 61.3835 54.8292 61.1903C54.9471 60.9972 55.1076 60.8466 55.3107 60.7386C55.5153 60.6307 55.7447 60.5767 55.9989 60.5767C56.2546 60.5767 56.4812 60.6307 56.6786 60.7386C56.8761 60.8466 57.0309 60.9922 57.1431 61.1754C57.2553 61.3587 57.3114 61.5625 57.3114 61.7869C57.3114 61.9474 57.2823 62.1044 57.2241 62.2578C57.1673 62.4098 57.0678 62.5795 56.9258 62.767C56.7852 62.9531 56.5898 63.1804 56.3398 63.4489L55.3597 64.4972V64.5312H57.3881V65H54.6353Z" fill="#A9B1BB"/>
<path d="M56.016 84.0597C55.7347 84.0597 55.484 84.0114 55.2638 83.9148C55.0451 83.8182 54.8711 83.6839 54.7418 83.5121C54.614 83.3388 54.5444 83.1378 54.533 82.9091H55.07C55.0813 83.0497 55.1296 83.1712 55.2148 83.2734C55.3001 83.3743 55.4116 83.4524 55.5494 83.5078C55.6871 83.5632 55.8398 83.5909 56.0075 83.5909C56.195 83.5909 56.3612 83.5582 56.506 83.4929C56.6509 83.4276 56.7646 83.3366 56.8469 83.2202C56.9293 83.1037 56.9705 82.9688 56.9705 82.8153C56.9705 82.6548 56.9308 82.5135 56.8512 82.3913C56.7717 82.2678 56.6552 82.1712 56.5018 82.1016C56.3484 82.032 56.1609 81.9972 55.9393 81.9972H55.5898V81.5284H55.9393C56.1126 81.5284 56.2646 81.4972 56.3952 81.4347C56.5273 81.3722 56.6303 81.2841 56.7042 81.1705C56.7795 81.0568 56.8171 80.9233 56.8171 80.7699C56.8171 80.6222 56.7844 80.4936 56.7191 80.3842C56.6538 80.2749 56.5614 80.1896 56.4421 80.1286C56.3242 80.0675 56.185 80.0369 56.0245 80.0369C55.8739 80.0369 55.7319 80.0646 55.5984 80.12C55.4663 80.174 55.3583 80.2528 55.2745 80.3565C55.1907 80.4588 55.1452 80.5824 55.1381 80.7273H54.6268C54.6353 80.4986 54.7042 80.2983 54.8335 80.1264C54.9627 79.9531 55.1317 79.8182 55.3406 79.7216C55.5508 79.625 55.7816 79.5767 56.033 79.5767C56.3029 79.5767 56.5344 79.6314 56.7276 79.7408C56.9208 79.8487 57.0692 79.9915 57.1729 80.169C57.2766 80.3466 57.3285 80.5384 57.3285 80.7443C57.3285 80.9901 57.2638 81.1996 57.1346 81.3729C57.0067 81.5462 56.8327 81.6662 56.6126 81.733V81.767C56.8881 81.8125 57.1033 81.9297 57.2582 82.1186C57.413 82.3061 57.4904 82.5384 57.4904 82.8153C57.4904 83.0526 57.4258 83.2656 57.2965 83.4545C57.1687 83.642 56.994 83.7898 56.7724 83.8977C56.5508 84.0057 56.2987 84.0597 56.016 84.0597Z" fill="#A9B1BB"/>
<path d="M54.4246 102.105V101.67L56.3422 98.6364H56.6576V99.3097H56.4445L54.9956 101.602V101.636H57.578V102.105H54.4246ZM56.4786 103V101.973V101.771V98.6364H56.9814V103H56.4786Z" fill="#A9B1BB"/>
<path d="M55.9901 122.06C55.7401 122.06 55.515 122.01 55.3147 121.911C55.1144 121.811 54.9539 121.675 54.8332 121.501C54.7124 121.328 54.6464 121.131 54.635 120.909H55.1464C55.1663 121.107 55.2558 121.27 55.4149 121.399C55.5754 121.527 55.7671 121.591 55.9901 121.591C56.1691 121.591 56.3282 121.549 56.4674 121.465C56.608 121.381 56.7181 121.266 56.7977 121.12C56.8786 120.972 56.9191 120.805 56.9191 120.619C56.9191 120.429 56.8772 120.259 56.7934 120.11C56.711 119.96 56.5974 119.841 56.4525 119.754C56.3076 119.668 56.1421 119.624 55.9561 119.622C55.8225 119.621 55.6855 119.641 55.5448 119.684C55.4042 119.725 55.2884 119.778 55.1975 119.844L54.7032 119.784L54.9674 117.636H57.2345V118.105H55.4106L55.2572 119.392H55.2828C55.3722 119.321 55.4845 119.262 55.6194 119.215C55.7544 119.168 55.895 119.145 56.0413 119.145C56.3083 119.145 56.5463 119.209 56.7551 119.337C56.9653 119.463 57.1301 119.636 57.2494 119.857C57.3701 120.077 57.4305 120.328 57.4305 120.611C57.4305 120.889 57.368 121.138 57.243 121.357C57.1194 121.574 56.949 121.746 56.7316 121.872C56.5143 121.997 56.2671 122.06 55.9901 122.06Z" fill="#A9B1BB"/>
<path d="M95 41H70C68.3431 41 67 42.3431 67 44C67 45.6569 68.3431 47 70 47H95C96.6569 47 98 45.6569 98 44C98 42.3431 96.6569 41 95 41Z" fill="#E8EBF0"/>
<path d="M162 41H113C111.343 41 110 42.3431 110 44C110 45.6569 111.343 47 113 47H162C163.657 47 165 45.6569 165 44C165 42.3431 163.657 41 162 41Z" fill="#E8EBF0"/>
<path d="M202 41H180C178.343 41 177 42.3431 177 44C177 45.6569 178.343 47 180 47H202C203.657 47 205 45.6569 205 44C205 42.3431 203.657 41 202 41Z" fill="#E8EBF0"/>
<path d="M91 60H70C68.3431 60 67 61.3431 67 63C67 64.6569 68.3431 66 70 66H91C92.6569 66 94 64.6569 94 63C94 61.3431 92.6569 60 91 60Z" fill="#E8EBF0"/>
<path d="M156 60H113C111.343 60 110 61.3431 110 63C110 64.6569 111.343 66 113 66H156C157.657 66 159 64.6569 159 63C159 61.3431 157.657 60 156 60Z" fill="#E8EBF0"/>
<path d="M195 60H180C178.343 60 177 61.3431 177 63C177 64.6569 178.343 66 180 66H195C196.657 66 198 64.6569 198 63C198 61.3431 196.657 60 195 60Z" fill="#E8EBF0"/>
<path d="M95 79H70C68.3431 79 67 80.3431 67 82C67 83.6569 68.3431 85 70 85H95C96.6569 85 98 83.6569 98 82C98 80.3431 96.6569 79 95 79Z" fill="#E8EBF0"/>
<path d="M162 79H113C111.343 79 110 80.3431 110 82C110 83.6569 111.343 85 113 85H162C163.657 85 165 83.6569 165 82C165 80.3431 163.657 79 162 79Z" fill="#E8EBF0"/>
<path d="M198 79H180C178.343 79 177 80.3431 177 82C177 83.6569 178.343 85 180 85H198C199.657 85 201 83.6569 201 82C201 80.3431 199.657 79 198 79Z" fill="#E8EBF0"/>
<path d="M89 98H70C68.3431 98 67 99.3431 67 101C67 102.657 68.3431 104 70 104H89C90.6569 104 92 102.657 92 101C92 99.3431 90.6569 98 89 98Z" fill="#E8EBF0"/>
<path d="M151 98H113C111.343 98 110 99.3431 110 101C110 102.657 111.343 104 113 104H151C152.657 104 154 102.657 154 101C154 99.3431 152.657 98 151 98Z" fill="#E8EBF0"/>
<path d="M195 98H180C178.343 98 177 99.3431 177 101C177 102.657 178.343 104 180 104H195C196.657 104 198 102.657 198 101C198 99.3431 196.657 98 195 98Z" fill="#E8EBF0"/>
<path d="M93 117H70C68.3431 117 67 118.343 67 120C67 121.657 68.3431 123 70 123H93C94.6569 123 96 121.657 96 120C96 118.343 94.6569 117 93 117Z" fill="#E8EBF0"/>
<path d="M158 117H113C111.343 117 110 118.343 110 120C110 121.657 111.343 123 113 123H158C159.657 123 161 121.657 161 120C161 118.343 159.657 117 158 117Z" fill="#E8EBF0"/>
<path d="M200 117H180C178.343 117 177 118.343 177 120C177 121.657 178.343 123 180 123H200C201.657 123 203 121.657 203 120C203 118.343 201.657 117 200 117Z" fill="#E8EBF0"/>
<path d="M214 53.5H50C44.4772 53.5 40 57.9772 40 63.5V81.5C40 87.0228 44.4772 91.5 50 91.5H214C219.523 91.5 224 87.0228 224 81.5V63.5C224 57.9772 219.523 53.5 214 53.5Z" stroke="#868F9C" stroke-linecap="round" stroke-dasharray="3.5 3"/>
<path d="M222 89.5L234.035 96.5325L228.887 97.8375L226.567 102.767L222 89.5Z" fill="#454C5B" stroke="#454C5B" stroke-width="1.015" stroke-linecap="round" stroke-linejoin="round"/>
<path d="M249.83 104.5H241.5L244.832 108.44V111.164L246.498 111.997V108.44L249.83 104.5Z" stroke="#6C7683" stroke-linecap="round" stroke-linejoin="round"/>
<path d="M250 110.5H254M252 108.5V112.5" stroke="#6C7683" stroke-width="0.8" stroke-linecap="round" stroke-linejoin="round"/>
<rect x="234.25" y="99.25" width="24.5" height="17.5" rx="8.75" stroke="#E4E8ED" stroke-width="0.5"/>
</svg>
